<?xml version="1.0" encoding="UTF-8" standalone="no"?> <svg id="Layer_1" data-name="Layer 1" xmlns="http://www.w3.org/2000/svg" viewBox="0 0 120 120"><defs><style>.cls-1{fill:#1e0505;}</style></defs><title>Roasted chicken icon_1</title><path class="cls-1" d="M101.73,75.84a22.16,22.16,0,0,0,.57-4.91c0-6.39-2.82-12.32-7.62-17.2,1.15-3.09,1.54-6.07.54-8.4l4.88-4.16,5-.31a2,2,0,1,0-.25-4l-3,.18.65-2.88a2,2,0,1,0-3.9-.89l-1.1,4.84-5,4.26c-3.75-2.09-10-1.29-15.53.51a8.42,8.42,0,0,0-.45-4.64l4.75-4,4.85-.31a2,2,0,1,0-.25-3.9L83,30.18l.64-2.82a2,2,0,0,0-3.81-.87l-1.08,4.74-4.85,4.13c-3.2-1.82-8-1.31-11.82-.44-5.1,1.17-10.34,3.47-13,5.71A13.52,13.52,0,0,0,47.6,42C30.08,45.76,17.28,57.3,17.28,70.93a22.17,22.17,0,0,0,.58,4.91A6,6,0,0,0,19,87.72h4.8a4.9,4.9,0,0,0,.08,1.7l.45,2a5.87,5.87,0,0,0,5.54,4.46H89.68a5.88,5.88,0,0,0,5.55-4.47l.45-2a4.9,4.9,0,0,0,.08-1.7h4.8a6,6,0,0,0,1.17-11.88ZM87,45.12c2,0,3.54.39,4.31,1.31,2.66,3.2-4.24,14.65-9.46,19h0a9.48,9.48,0,0,1-13.33-1.23,9.48,9.48,0,0,1,1.24-13.33C73.13,48,81.56,45.12,87,45.12Zm-24-6.3a24.42,24.42,0,0,1,5.34-.69c2.07,0,3.59.42,4.28,1.25A3.75,3.75,0,0,1,73,42.27a58,58,0,0,0-13.25-1.51q-1.55,0-3.06.09A37.61,37.61,0,0,1,63,38.82Zm-3.18,5.94a55.51,55.51,0,0,1,10.47,1,20.75,20.75,0,0,0-3.11,2A13.47,13.47,0,0,0,84.36,68.49h0A41.18,41.18,0,0,0,92.9,57.58a20.19,20.19,0,0,1,5.4,13.35,17.63,17.63,0,0,1-.59,4.54H21.88a17.64,17.64,0,0,1-.6-4.54C21.28,56.5,38.56,44.76,59.79,44.76Zm32,43.79-.44,2a1.86,1.86,0,0,1-1.65,1.34H29.9a1.86,1.86,0,0,1-1.64-1.34l-.45-2a.61.61,0,0,1,.06-.52.54.54,0,0,1,.41-.14h63a.56.56,0,0,1,.41.14A.68.68,0,0,1,91.77,88.55Zm8.79-4.83H19a2,2,0,0,1,0-4h81.53a2,2,0,0,1,0,4Z"/></svg>